<svg width="105" height="18" viewBox="0 0 105 18" fill="none" xmlns="http://www.w3.org/2000/svg">
<path d="M87.3809 12.9287V8.78467C87.3809 7.66162 87.7664 6.75195 88.5376 6.05566C89.3088 5.35189 90.5479 5 92.2549 5C93.887 5 95.0887 5.32194 95.8599 5.96582C96.631 6.60221 97.0166 7.48568 97.0166 8.61621V11.4463H89.4922V13.1196C89.4922 14.0854 89.6831 14.7668 90.0649 15.1636C90.4543 15.5604 91.2104 15.7588 92.3335 15.7588C92.9998 15.7588 93.5239 15.7363 93.9058 15.6914C94.2951 15.639 94.5796 15.4893 94.7593 15.2422C94.9465 14.9876 95.07 14.5609 95.1299 13.9619H96.9941C96.8968 14.8978 96.6909 15.6128 96.3765 16.1069C96.0695 16.5936 95.5941 16.9268 94.9502 17.1064C94.3063 17.2861 93.4341 17.376 92.3335 17.376C91.1506 17.376 90.196 17.2113 89.4697 16.8818C88.7435 16.5524 88.2119 16.0583 87.875 15.3994C87.5456 14.7406 87.3809 13.917 87.3809 12.9287ZM94.9727 10.02V8.3916C94.9727 7.91243 94.8566 7.54557 94.6245 7.29102C94.3999 7.03646 94.0854 6.86051 93.6812 6.76318C93.2769 6.66585 92.8014 6.61719 92.2549 6.61719C91.4163 6.61719 90.7463 6.76318 90.2446 7.05518C89.743 7.34717 89.4922 7.86003 89.4922 8.59375V10.02H94.9727Z" fill="#40065D"/>
<path d="M75.0391 4.99805H77.1616L80.9238 15.1279L80.5869 15.1392L83.9336 4.99805H86L81.7886 16.9023H79.6548L75.0391 4.99805Z" fill="#40065D"/>
<path d="M67.4253 17.1494C66.5493 17.1494 65.8343 16.9997 65.2803 16.7002C64.7337 16.3932 64.3294 15.9927 64.0674 15.4985C63.8128 14.9969 63.6855 14.4616 63.6855 13.8926C63.6855 13.2936 63.8016 12.792 64.0337 12.3877C64.2733 11.9759 64.7188 11.6053 65.3701 11.2759C66.029 10.939 66.991 10.5871 68.2563 10.2202C68.9152 10.0256 69.443 9.85335 69.8398 9.70361C70.2367 9.55387 70.5249 9.36296 70.7046 9.13086C70.8843 8.89876 70.9741 8.56559 70.9741 8.13135C70.9741 7.80941 70.9217 7.51742 70.8169 7.25537C70.7196 6.99333 70.5137 6.78369 70.1992 6.62646C69.8923 6.46924 69.4206 6.39062 68.7842 6.39062C67.9906 6.39062 67.4103 6.47298 67.0435 6.6377C66.6766 6.80241 66.4408 7.01953 66.3359 7.28906C66.2386 7.55111 66.1899 7.8431 66.1899 8.16504V8.69287H64.1572V8.15381C64.1572 6.97835 64.5503 6.12109 65.3364 5.58203C66.1226 5.04297 67.2943 4.77344 68.8516 4.77344C69.8997 4.77344 70.7308 4.94189 71.3447 5.27881C71.9661 5.60824 72.4116 6.07617 72.6812 6.68262C72.9507 7.28906 73.0854 8.00033 73.0854 8.81641V13.8926C73.0854 14.5215 73.1641 14.9258 73.3213 15.1055C73.486 15.2852 73.8229 15.375 74.332 15.375L74.085 16.9922H73.6582C72.8646 16.9922 72.2918 16.8387 71.9399 16.5317C71.5881 16.2173 71.3223 15.7793 71.1426 15.2178C70.9704 15.4873 70.7308 15.7718 70.4238 16.0713C70.1243 16.3708 69.7313 16.6253 69.2446 16.835C68.7655 17.0446 68.159 17.1494 67.4253 17.1494ZM67.6836 15.5771C68.1104 15.5771 68.5558 15.4873 69.02 15.3076C69.4842 15.1204 69.896 14.8771 70.2554 14.5776C70.6222 14.2707 70.8618 13.9338 70.9741 13.5669V10.4336C70.8094 10.5983 70.5212 10.8154 70.1094 11.085C69.7051 11.347 69.1248 11.5866 68.3687 11.8037C67.4478 12.0658 66.7702 12.3353 66.3359 12.6123C65.9092 12.8893 65.6958 13.2936 65.6958 13.8252C65.6958 14.4242 65.8493 14.8659 66.1562 15.1504C66.4707 15.4349 66.9798 15.5771 67.6836 15.5771Z" fill="#40065D"/>
<path d="M57.5205 12.8813V0H59.6318V12.9038C59.6318 13.5477 59.6917 14.0381 59.8115 14.375C59.9313 14.7044 60.1484 14.929 60.4629 15.0488C60.7773 15.1611 61.2303 15.2173 61.8218 15.2173H62.1924L61.9453 16.9917H61.3389C60.4704 16.9917 59.7516 16.8906 59.1826 16.6885C58.6211 16.4863 58.2018 16.0895 57.9248 15.498C57.6553 14.9066 57.5205 14.0343 57.5205 12.8813Z" fill="#40065D"/>
<path d="M48.5815 17.1494C47.2264 17.1494 46.1221 17.0109 45.2686 16.7339C44.415 16.4569 43.7562 16.0675 43.292 15.5659C42.8353 15.0568 42.5171 14.4541 42.3374 13.7578C42.1652 13.0615 42.0791 12.2904 42.0791 11.4443V6.3457C42.0791 5.4847 42.1615 4.69482 42.3262 3.97607C42.4984 3.24984 42.8128 2.62093 43.2695 2.08936C43.7337 1.55778 44.3888 1.146 45.2349 0.854004C46.0884 0.562012 47.1965 0.416016 48.5591 0.416016C49.7869 0.416016 50.7977 0.52832 51.5913 0.75293C52.3849 0.970052 53.0026 1.29574 53.4443 1.72998C53.8861 2.16423 54.193 2.70329 54.3652 3.34717C54.5449 3.98356 54.6348 4.72103 54.6348 5.55957V5.70557L52.4897 5.89648V5.59326C52.4897 4.61247 52.3625 3.88249 52.1079 3.40332C51.8608 2.92415 51.4491 2.6097 50.8726 2.45996C50.2961 2.31022 49.5249 2.23535 48.5591 2.23535C47.6082 2.23535 46.8221 2.34391 46.2007 2.56104C45.5793 2.77067 45.1151 3.14502 44.8081 3.68408C44.5011 4.21566 44.3477 4.96436 44.3477 5.93018V11.7925C44.3477 12.7508 44.5049 13.4845 44.8193 13.9937C45.1338 14.5028 45.6055 14.8547 46.2344 15.0493C46.8708 15.2365 47.6681 15.3301 48.6265 15.3301C49.5698 15.3301 50.3223 15.2664 50.8838 15.1392C51.4528 15.0119 51.8608 14.7236 52.1079 14.2744C52.3625 13.8177 52.4897 13.1064 52.4897 12.1406V11.8711H54.6348V11.9834C54.6348 12.7995 54.5562 13.5295 54.3989 14.1733C54.2492 14.8097 53.9647 15.3488 53.5454 15.7905C53.1261 16.2323 52.516 16.5692 51.7148 16.8013C50.9212 17.0334 49.8768 17.1494 48.5815 17.1494Z" fill="#40065D"/>
<path d="M34.4092 17.1602C33.1439 17.1602 32.1257 17.0029 31.3545 16.6885C30.5908 16.3665 30.0368 15.9136 29.6924 15.3296C29.348 14.7456 29.1758 14.0531 29.1758 13.252V8.50146C29.1758 7.6779 29.3817 6.97412 29.7935 6.39014C30.2052 5.80615 30.8005 5.36068 31.5791 5.05371C32.3652 4.73926 33.3086 4.58203 34.4092 4.58203C35.5098 4.58203 36.4494 4.73926 37.228 5.05371C38.0067 5.36068 38.6019 5.80615 39.0137 6.39014C39.4329 6.97412 39.6426 7.6779 39.6426 8.50146V13.252C39.6426 14.0456 39.4779 14.7381 39.1484 15.3296C38.819 15.9136 38.2725 16.3665 37.5088 16.6885C36.7526 17.0029 35.7194 17.1602 34.4092 17.1602ZM34.4092 15.0376C35.0605 15.0376 35.5846 14.9178 35.9814 14.6782C36.3857 14.4312 36.5879 14.0007 36.5879 13.3867V8.3667C36.5879 7.75277 36.397 7.32601 36.0151 7.08643C35.6333 6.83936 35.098 6.71582 34.4092 6.71582C33.7503 6.71582 33.2225 6.83936 32.8257 7.08643C32.4289 7.32601 32.2305 7.75277 32.2305 8.3667V13.3867C32.2305 14.0007 32.4176 14.4312 32.792 14.6782C33.1663 14.9178 33.7054 15.0376 34.4092 15.0376Z" fill="#40065D"/>
<path d="M16.4971 4.84082H19.5518V5.90771C20.016 5.5109 20.5288 5.18896 21.0903 4.94189C21.6519 4.69482 22.3706 4.57129 23.2466 4.57129C24.1525 4.57129 24.8862 4.73975 25.4478 5.07666C26.0093 5.40609 26.4211 5.84782 26.6831 6.40186C26.9451 6.95589 27.0762 7.57357 27.0762 8.25488V16.9023H24.0215V8.42334C24.0215 7.99658 23.9092 7.6709 23.6846 7.44629C23.4674 7.22168 23.1942 7.0682 22.8647 6.98584C22.5428 6.90348 22.2209 6.8623 21.8989 6.8623C21.5321 6.8623 21.1689 6.92969 20.8096 7.06445C20.4502 7.19922 20.1507 7.39762 19.9111 7.65967C19.6715 7.92171 19.5518 8.25114 19.5518 8.64795V16.9023H16.4971V4.84082Z" fill="#40065D"/>
<path d="M6.96289 17.1938C5.54785 17.1938 4.38363 17.0553 3.47021 16.7783C2.56429 16.5013 1.85677 16.112 1.34766 15.6104C0.846029 15.1087 0.494141 14.521 0.291992 13.8472C0.0973307 13.1733 0 12.4396 0 11.646V0.314453H3.33545V11.792C3.33545 12.5182 3.4777 13.0835 3.76221 13.4878C4.04671 13.8921 4.4585 14.1766 4.99756 14.3413C5.54411 14.4985 6.19922 14.5771 6.96289 14.5771C7.74154 14.5771 8.38167 14.4948 8.8833 14.3301C9.39242 14.1654 9.77051 13.8809 10.0176 13.4766C10.2646 13.0723 10.3882 12.5107 10.3882 11.792V0.314453H13.7236V11.5112C13.7236 12.2974 13.63 13.0348 13.4429 13.7236C13.2557 14.4124 12.9188 15.0189 12.4321 15.543C11.953 16.0596 11.2716 16.4639 10.3882 16.7559C9.50472 17.0479 8.36296 17.1938 6.96289 17.1938Z" fill="#40065D"/>
<circle cx="102.023" cy="15" r="2" fill="#E37B05"/>
</svg>
